<?xml version="1.0" encoding="utf-8"?>
<!-- Generator: Adobe Illustrator 18.1.0, SVG Export Plug-In . SVG Version: 6.00 Build 0)  -->
<svg version="1.1" id="Layer_1" xmlns="http://www.w3.org/2000/svg" xmlns:xlink="http://www.w3.org/1999/xlink" x="0px" y="0px"
	 viewBox="0 0 200 205.6" enable-background="new 0 0 200 205.6" xml:space="preserve">
<g>
	<g>
		<g>
			<path d="M4.2,92.6L92.6,4.2c5.6-5.6,14.8-5.6,20.4,0c5.6,5.6,5.6,14.7,0,20.4l-78.2,78.2L113,181c5.6,5.6,5.6,14.7,0,20.4
				c-5.6,5.6-14.7,5.6-20.4,0L4.2,113c-2.8-2.8-4.2-6.5-4.2-10.2C0,99.1,1.4,95.4,4.2,92.6L4.2,92.6z M4.2,92.6"/>
		</g>
	</g>
	<g>
		<g>
			<path d="M87,92.6l88.4-88.4c5.6-5.6,14.8-5.6,20.4,0c5.6,5.6,5.6,14.7,0,20.4l-78.2,78.2l78.2,78.2c5.6,5.6,5.6,14.7,0,20.4
				c-5.6,5.6-14.7,5.6-20.4,0L87,113c-2.8-2.8-4.2-6.5-4.2-10.2C82.8,99.1,84.2,95.4,87,92.6L87,92.6z M87,92.6"/>
		</g>
	</g>
</g>
</svg>
