<?xml version="1.0" encoding="utf-8"?>
<!-- Generator: Adobe Illustrator 18.1.0, SVG Export Plug-In . SVG Version: 6.00 Build 0)  -->
<svg version="1.1" id="Layer_1" xmlns="http://www.w3.org/2000/svg" xmlns:xlink="http://www.w3.org/1999/xlink" x="0px" y="0px"
	 viewBox="0 0 200 205.6" enable-background="new 0 0 200 205.6" xml:space="preserve">
<g>
	<g>
		<g>
			<path d="M195.8,113l-88.4,88.4c-5.6,5.6-14.8,5.6-20.4,0c-5.6-5.6-5.6-14.7,0-20.4l78.2-78.2L87,24.6C81.4,19,81.4,9.9,87,4.2
				c5.6-5.6,14.7-5.6,20.4,0l88.4,88.4c2.8,2.8,4.2,6.5,4.2,10.2C200,106.5,198.6,110.2,195.8,113L195.8,113z M195.8,113"/>
		</g>
	</g>
	<g>
		<g>
			<path d="M113,113l-88.4,88.4c-5.6,5.6-14.8,5.6-20.4,0c-5.6-5.6-5.6-14.7,0-20.4l78.2-78.2L4.2,24.6C-1.4,19-1.4,9.9,4.2,4.2
				c5.6-5.6,14.7-5.6,20.4,0L113,92.6c2.8,2.8,4.2,6.5,4.2,10.2C117.2,106.5,115.8,110.2,113,113L113,113z M113,113"/>
		</g>
	</g>
</g>
</svg>
