<?xml version="1.0" encoding="utf-8"?>
<!-- Generator: Adobe Illustrator 18.1.0, SVG Export Plug-In . SVG Version: 6.00 Build 0)  -->
<svg version="1.1" id="Capa_1" xmlns="http://www.w3.org/2000/svg" xmlns:xlink="http://www.w3.org/1999/xlink" x="0px" y="0px"
	 viewBox="-202 4.9 553.1 553.1" enable-background="new -202 4.9 553.1 553.1" xml:space="preserve">
<g>
	<g>
		<path d="M131.1,331.9c-8.6,0-16.8,4.8-24.5,14.4v-58H82.5v177.5h24.1v-13c7.9,9.8,16.1,14.8,24.5,14.8c9.8,0,16.2-5,19.1-15.1
			c1.7-5,2.5-13.8,2.5-26.3v-52.6c0-12.7-0.8-21.6-2.5-26.6C147.3,336.9,140.9,331.9,131.1,331.9z M128.9,428
			c0,11.8-3.5,17.6-10.4,17.6c-4.1,0-8-1.9-11.9-5.8v-80.7c3.8-3.8,7.8-5.8,11.9-5.8c7,0,10.4,6,10.4,18V428z"/>
		<path d="M207.4,331.9c-12.2,0-21.8,4.6-28.8,13.7c-4.8,6.5-7.2,16.8-7.2,31V423c0,14.2,2.5,24.5,7.6,31c7,9.1,16.7,13.7,29.2,13.7
			c12.7,0,22.3-4.8,28.8-14.4c2.9-4.3,4.7-9.1,5.4-14.4c0.5-3.3,0.7-8.5,0.7-15.5v-3.2h-24.5c0,2.6,0,5.2,0,7.7s-0.1,4.5-0.2,5.9
			c-0.1,1.4-0.2,2.3-0.2,2.5c-1.4,6.2-5,9.4-10.8,9.4c-8.2,0-12.2-6.1-12.2-18.4v-23.4h47.9v-27.4c0-13.9-2.5-24.2-7.6-31
			C229,336.4,219.7,331.9,207.4,331.9z M218.9,384.1h-23.8v-12.3c0-12.2,4-18.4,11.9-18.4c7.9,0,11.9,6.1,11.9,18.4L218.9,384.1
			L218.9,384.1z"/>
		<path d="M37.8,434.5c-5.3,7.4-10.3,11.2-15.1,11.2c-3.4,0-5.2-1.8-5.4-5.4c-0.2-0.5-0.4-3.6-0.4-9.4v-97.2H-6.8v104.4
			c0,9.1,0.7,15.6,2.2,19.4c2.2,6.7,7.2,10.1,15.1,10.1c8.9,0,18-5.4,27.4-16.2v14.4H62V333.7H37.8L37.8,434.5L37.8,434.5
			L37.8,434.5z"/>
		<path d="M69.2,197.9c7.7,0,11.5-6.1,11.5-18.4v-56.2c0-12.5-3.8-18.7-11.5-18.7c-7.7,0-11.5,6.2-11.5,18.7v56.2
			C57.6,191.8,61.5,197.9,69.2,197.9z"/>
		<polygon points="-94,313.5 -65.9,313.5 -65.9,465.8 -39.2,465.8 -39.2,313.5 -10.4,313.5 -10.4,288.3 -94,288.3 		"/>
		<path d="M247.4,4.9H-98.3c-28.6,0-53,10.2-73.3,30.4C-191.9,55.6-202,80-202,108.6v345.7c0,28.6,10.1,53,30.4,73.3
			c20.3,20.3,44.7,30.4,73.3,30.4h345.7c28.6,0,53-10.2,73.3-30.4c20.3-20.3,30.4-44.7,30.4-73.3V108.6c0-28.6-10.1-53-30.4-73.3
			C300.4,15.1,276,4.9,247.4,4.9z M124.6,84.8h24.1v97.9c0,5.8,0.1,8.9,0.4,9.4c0.2,3.9,2.2,5.8,5.8,5.8c4.8,0,9.8-3.7,15.1-11.2
			V84.8h24.1v133.2H170v-14.4c-9.8,10.8-19.1,16.2-27.7,16.2c-7.7,0-12.8-3.2-15.5-9.7c-1.4-4.3-2.2-10.9-2.2-19.8L124.6,84.8
			L124.6,84.8z M33.5,128c0-13.9,2.5-24.4,7.6-31.3C47.5,87.6,56.9,83,69.1,83c11.8,0,21.1,4.6,28.1,13.7c5,7,7.6,17.4,7.6,31.3
			v46.8c0,14.4-2.5,24.9-7.6,31.3c-7,9.1-16.3,13.7-28.1,13.7c-12.2,0-21.6-4.6-28.1-13.7c-5-6.9-7.6-17.4-7.6-31.3L33.5,128
			L33.5,128z M-31.3,39.1l19.1,70.2L6.1,39.1h27L0.7,145.7v72.4h-26.6v-72.4c-2.6-13.2-8.2-32.2-16.6-56.9
			c-1.7-5.5-4.4-13.8-8.3-24.9c-3.8-11-6.7-19.3-8.6-24.8L-31.3,39.1L-31.3,39.1z M265.4,473.7c-2.4,10.3-7.5,19.1-15.3,26.3
			c-7.8,7.2-16.9,11.4-27.2,12.6c-32.9,3.6-82.3,5.4-148.4,5.4c-66,0-115.5-1.8-148.4-5.4c-10.3-1.2-19.4-5.4-27.2-12.6
			c-7.8-7.2-12.9-15.9-15.3-26.3c-4.8-20.2-7.2-51.4-7.2-93.6c0-41.5,2.4-72.7,7.2-93.6c2.4-10.6,7.5-19.4,15.3-26.5
			c7.8-7.1,17-11.2,27.5-12.4c32.6-3.6,82-5.4,148-5.4c66.3,0,115.7,1.8,148.4,5.4c10.3,1.2,19.4,5.3,27.4,12.4
			c7.9,7.1,13.1,15.9,15.5,26.5c4.6,19.9,6.8,51.1,6.8,93.6C272.6,422.4,270.2,453.6,265.4,473.7z"/>
	</g>
</g>
</svg>
