<?xml version="1.0" encoding="utf-8"?>
<!-- Generator: Adobe Illustrator 18.1.0, SVG Export Plug-In . SVG Version: 6.00 Build 0)  -->
<svg version="1.1" id="Capa_1" xmlns="http://www.w3.org/2000/svg" xmlns:xlink="http://www.w3.org/1999/xlink" x="0px" y="0px"
	 viewBox="-202 558 500 500" enable-background="new -202 558 500 500" xml:space="preserve">
<g>
	<g>
		<path d="M92.6,855.4c-7.4-0.6-14.7,2.8-22,10.5l4.3-49.6l-20.6-1.8L41,966.4l20.6,1.8l1-11.1c6,9,12.7,13.8,19.8,14.5
			c8.4,0.7,14.2-3.1,17.5-11.5c1.8-4.2,3.2-11.6,4.1-22.3l3.9-45c1-10.9,0.9-18.6-0.2-23C106.1,860.9,101,856.1,92.6,855.4z
			 M83.6,937.5c-0.9,10.1-4.3,14.8-10.3,14.3c-3.5-0.3-6.7-2.2-9.7-5.8l6-69c3.6-3,7.1-4.3,10.6-4c6,0.5,8.5,5.9,7.6,16.2
			L83.6,937.5z"/>
		<path d="M157.9,861.1c-10.5-0.9-19,2.3-25.7,9.6c-4.6,5.2-7.4,13.8-8.5,26l-3.5,39.8c-1.1,12.1,0.3,21.1,4.2,27.1
			c5.3,8.3,13.3,13,23.9,13.9c10.9,1,19.5-2.4,25.7-10.2c2.8-3.5,4.7-7.4,5.7-11.9c0.7-2.8,1.3-7.2,1.8-13.2l0.2-2.8l-21-1.8
			c-0.2,2.3-0.4,4.5-0.6,6.6s-0.4,3.8-0.6,5.1c-0.2,1.2-0.3,1.9-0.3,2.1c-1.7,5.2-5,7.6-9.9,7.2c-7-0.6-10-6.2-9.1-16.6l1.8-20
			l41,3.6l2-23.4c1-11.9-0.3-20.9-4.2-27.1C176.1,866.6,168.4,862,157.9,861.1z M163.9,906.6l-20.3-1.8l0.9-10.5
			c0.9-10.5,4.8-15.4,11.5-14.8c6.8,0.6,9.7,6.1,8.8,16.6L163.9,906.6L163.9,906.6z"/>
		<path d="M5.1,936.2c-5.1,6-9.7,8.8-13.8,8.4c-2.9-0.3-4.3-1.9-4.2-5c-0.2-0.4,0-3.1,0.4-8l7.3-83.2l-20.3-1.8l-7.8,89.4
			c-0.7,7.8-0.6,13.4,0.4,16.8c1.3,5.9,5.4,9.2,12.2,9.8c7.6,0.7,15.8-3.3,24.6-11.8L2.8,963l20.6,1.8l9.9-113.1l-20.6-1.8
			L5.1,936.2L5.1,936.2L5.1,936.2z"/>
		<path d="M49.6,736.1c6.6,0.6,10.3-4.4,11.2-14.9l4.2-48.1c0.9-10.7-1.9-16.3-8.5-16.9c-6.6-0.6-10.3,4.5-11.3,15.2l-4.2,48.1
			C40.2,730,43.1,735.5,49.6,736.1z"/>
		<polygon points="-98.6,822.8 -74.6,824.9 -86,955.3 -63.2,957.3 -51.8,826.9 -27.1,829.1 -25.2,807.5 -96.7,801.2 		"/>
		<path d="M216.6,584.3l-295.8-25.9c-24.4-2.1-46.1,4.7-65,20.5c-18.9,15.9-29.4,36-31.5,60.4l-25.9,295.8
			c-2.1,24.4,4.7,46.1,20.6,65c15.8,18.9,36,29.4,60.4,31.5l295.8,25.9c24.4,2.1,46.1-4.7,65-20.6c18.9-15.8,29.4-36,31.5-60.4
			l25.9-295.8c2.1-24.4-4.7-46.1-20.6-65C261.2,596.9,241.1,586.4,216.6,584.3z M105.6,643.5l20.6,1.8l-7.3,83.8
			c-0.4,4.9-0.6,7.6-0.4,8c-0.1,3.3,1.4,5.1,4.5,5.4c4.1,0.4,8.7-2.4,13.8-8.4l7.6-87.2l20.6,1.8l-10,114l-20.6-1.8l1.1-12.3
			c-9.2,8.5-17.5,12.4-24.9,11.8c-6.6-0.6-10.8-3.7-12.5-9.5c-0.9-3.8-1-9.5-0.4-17.1L105.6,643.5L105.6,643.5z M24.4,673.6
			c1-11.9,4-20.7,8.8-26.2c6.2-7.3,14.6-10.5,25.1-9.6c10.1,0.9,17.7,5.5,23,13.8c3.8,6.3,5.2,15.5,4.1,27.4L81.9,719
			c-1.1,12.3-4,21.1-8.8,26.2c-6.6,7.3-15,10.5-25.1,9.6c-10.5-0.9-18.1-5.5-23-13.8c-3.8-6.3-5.2-15.4-4.1-27.4L24.4,673.6
			L24.4,673.6z M-24.5,592.7l11.1,61.5l21-58.7l23.1,2L-5,686.3l-5.4,61.9l-22.8-2l5.4-61.9c-1.3-11.5-4.6-28.1-9.9-49.9
			c-1-4.8-2.8-12.1-5.2-21.9c-2.5-9.7-4.3-17-5.5-21.9L-24.5,592.7L-24.5,592.7z M196.9,986.8c-2.8,8.7-7.9,15.8-15.1,21.4
			c-7.2,5.6-15.3,8.5-24.2,8.7c-28.4,0.6-70.9-1.5-127.4-6.5c-56.5-4.9-98.7-10.2-126.6-15.7c-8.7-1.8-16.2-6.1-22.3-12.8
			c-6.1-6.7-9.9-14.6-11.1-23.6c-2.6-17.6-2.3-44.5,0.8-80.7c3.1-35.5,7.5-62.1,13.2-79.6c2.8-8.9,7.9-16,15.1-21.5
			c7.2-5.5,15.4-8.3,24.5-8.6c28.2-0.6,70.6,1.5,127.1,6.5c56.7,5,98.9,10.2,126.6,15.7c8.7,1.8,16.2,6,22.5,12.7
			c6.3,6.7,10,14.6,11.3,23.8c2.4,17.4,2,44.3-1.2,80.6C206.9,943.4,202.6,970,196.9,986.8z"/>
	</g>
</g>
</svg>
